<svg width="41" height="52" viewBox="0 0 41 52" fill="none" xmlns="http://www.w3.org/2000/svg">
<path d="M37.2975 19.3849C36.2765 19.2888 35.2565 19.572 34.4351 20.1802C34.4131 19.1778 34.0272 18.2171 33.3475 17.4741C32.6679 16.7311 31.7407 16.256 30.7356 16.1356C29.5885 16.0279 28.4478 16.4 27.5902 17.1626C27.1559 15.9553 26.1668 15.0254 24.927 14.6584C23.6875 14.2918 22.3455 14.5315 21.3136 15.3047V8.2729C21.3246 7.24694 20.9529 6.25292 20.27 5.48125C19.5871 4.70953 18.6405 4.21419 17.612 4.09053C16.4604 3.97884 15.3146 4.35417 14.4574 5.12447C13.6002 5.89438 13.1114 6.987 13.1114 8.13337V22.7554C13.1114 23.204 13.4787 23.5678 13.9317 23.5678C14.3846 23.5678 14.7519 23.204 14.7519 22.7554V8.13337C14.753 7.44615 15.0459 6.79157 15.5589 6.32914C16.0723 5.86205 16.7637 5.63575 17.4572 5.70865C18.08 5.79133 18.6502 6.09886 19.0588 6.57212C19.4675 7.04502 19.6857 7.65062 19.6718 8.27292V28.4421C19.6718 28.8907 20.0391 29.2544 20.492 29.2544C20.945 29.2544 21.3123 28.8907 21.3123 28.4421V18.5548C21.313 17.8679 21.6059 17.213 22.1186 16.7506C22.6323 16.2835 23.3236 16.0572 24.0172 16.129C24.6408 16.2117 25.2116 16.5188 25.621 16.9921C26.03 17.4653 26.249 18.0713 26.2351 18.6944V28.4424C26.2351 28.891 26.6023 29.2547 27.0553 29.2547C27.5082 29.2547 27.8755 28.891 27.8755 28.4424V20.1794C27.8766 19.4926 28.1692 18.8376 28.6818 18.3752C29.1959 17.9081 29.8872 17.6818 30.5808 17.7536C31.2041 17.8367 31.7745 18.1442 32.1836 18.6174C32.5923 19.0903 32.8109 19.6963 32.797 20.319V28.4423C32.797 28.8909 33.1642 29.2547 33.6172 29.2547C34.0701 29.2547 34.4374 28.8909 34.4374 28.4423V23.4287C34.4385 22.7418 34.7311 22.0869 35.2437 21.6245C35.7575 21.157 36.4488 20.9307 37.1427 21.0029C37.7659 21.0859 38.3364 21.3935 38.7455 21.8667C39.1541 22.3396 39.3727 22.9456 39.3588 23.5683V34.941C39.3544 39.0331 37.7111 42.9563 34.7894 45.8495C31.8677 48.7431 27.9064 50.3706 23.7749 50.375H23.4951C20.7407 50.3721 18.0362 49.6475 15.6561 48.2749C13.2759 46.9023 11.3048 44.9306 9.94269 42.5596L1.99126 28.6858C1.70967 28.1872 1.60018 27.6117 1.67855 27.0455C1.75728 26.4798 2.01982 25.9547 2.42701 25.5504C2.96382 25.0184 3.70572 24.7409 4.46371 24.7885C5.22168 24.836 5.92221 25.2041 6.38726 25.7988L13.282 34.6257C13.4962 34.902 13.8645 35.0119 14.1974 34.8995C14.5302 34.7871 14.7536 34.477 14.7525 34.1285V26.0051C14.7525 25.5565 14.3852 25.1928 13.9323 25.1928C13.4793 25.1928 13.1121 25.5565 13.1121 26.0051V31.7517L7.68467 24.8062C6.79341 23.6639 5.37707 23.0488 3.92522 23.1732C2.47299 23.2976 1.18443 24.1444 0.504442 25.4213C-0.175541 26.6982 -0.153568 28.2296 0.562663 29.487L8.51888 43.3617C10.0243 45.9818 12.2022 48.1609 14.8328 49.6783C17.463 51.1953 20.4517 51.9964 23.4953 52H23.7751C28.342 51.9949 32.72 50.1958 35.9491 46.998C39.1784 43.7998 40.9946 39.4636 40.9998 34.941V23.5683C41.0108 22.542 40.6391 21.548 39.9562 20.7763C39.2732 20.0046 38.3267 19.5095 37.2981 19.3856L37.2975 19.3849Z" fill="black"/>
<path d="M23.7857 6.5082H31.6486L28.1271 9.9954C27.9689 10.147 27.8785 10.3548 27.8767 10.5727C27.8748 10.7907 27.9613 11.0003 28.1169 11.1541C28.2725 11.3082 28.4842 11.3941 28.7042 11.392C28.9239 11.3902 29.1341 11.3009 29.2868 11.1443L34.2082 6.27026C34.5286 5.95293 34.5286 5.4387 34.2082 5.12138L29.2868 0.247362C28.9649 -0.0605276 28.4534 -0.0558114 28.137 0.257516C27.8206 0.570844 27.8162 1.07747 28.1271 1.39627L31.6482 4.88347H23.7857C23.3327 4.88347 22.9655 5.24721 22.9655 5.69581C22.9655 6.1444 23.3328 6.5082 23.7857 6.5082Z" fill="black"/>
<path d="M5.1614 11.1446C5.31409 11.3012 5.52428 11.3904 5.74435 11.3922C5.96442 11.3944 6.17571 11.3085 6.33133 11.1543C6.48695 11.0006 6.57336 10.791 6.57153 10.573C6.56971 10.3551 6.47962 10.1473 6.32107 9.99568L2.79999 6.50848H10.6628C11.1158 6.50848 11.4831 6.14474 11.4831 5.69614C11.4831 5.24755 11.1158 4.88381 10.6628 4.88381H2.79999L6.32107 1.39661C6.47962 1.24502 6.5697 1.03722 6.57153 0.819265C6.57337 0.601308 6.48695 0.391698 6.33133 0.237939C6.1757 0.0838083 5.96442 -0.00213221 5.74435 4.0208e-05C5.52428 0.00185353 5.3141 0.0910655 5.1614 0.247733L0.240029 5.12175C-0.0800098 5.43907 -0.0800098 5.95331 0.240029 6.27063L5.1614 11.1446Z" fill="black"/>
</svg>
